<svg width="17" height="15" xmlns="http://www.w3.org/2000/svg" xmlns:xlink="http://www.w3.org/1999/xlink" xmlns:svgjs="http://svgjs.com/svgjs" viewBox="0 0.133 17 14.733" fill="#807d77"><svg xmlns="http://www.w3.org/2000/svg" width="17" height="15" viewBox="1.5 1.5 15 13"><path paint-order="stroke fill markers" fill-rule="evenodd" d="M16.5 3.044c-.55.254-1.15.436-1.769.507a3.241 3.241 0 0 0 1.352-1.807 5.83 5.83 0 0 1-1.951.792A2.98 2.98 0 0 0 11.885 1.5c-1.704 0-3.074 1.473-3.074 3.28 0 .254.028.508.076.752C6.336 5.39 4.06 4.09 2.547 2.099a3.423 3.423 0 0 0-.419 1.656c0 1.137.543 2.143 1.37 2.732A2.952 2.952 0 0 1 2.11 6.07v.04c0 1.595 1.057 2.916 2.466 3.22a3.059 3.059 0 0 1-.81.112c-.2 0-.39-.02-.58-.05.39 1.3 1.523 2.244 2.875 2.275a5.918 5.918 0 0 1-3.818 1.4 5.98 5.98 0 0 1-.742-.04A8.298 8.298 0 0 0 6.221 14.5c5.655 0 8.748-4.997 8.748-9.334 0-.142 0-.284-.009-.426a6.82 6.82 0 0 0 1.54-1.696z"/></svg></svg>