<svg width="17" height="15" xmlns="http://www.w3.org/2000/svg" xmlns:xlink="http://www.w3.org/1999/xlink" xmlns:svgjs="http://svgjs.com/svgjs" viewBox="0.464 0 16.071 15" fill="#807d77"><svg xmlns="http://www.w3.org/2000/svg" width="17" height="15" viewBox="1.5 2 15 14"><path paint-order="stroke fill markers" fill-rule="evenodd" d="M4.725 6.427H1.683V16h3.042V6.427zm.214-2.956C4.929 2.715 4.266 2 3.223 2 2.19 2 1.5 2.715 1.5 3.652c0 .917.663 1.652 1.687 1.652h.018c1.06 0 1.744-.735 1.734-1.652v-.18zM16.5 10.443c0-2.823-1.498-4.058-3.548-4.058-1.813-.18-2.607.776-3.045 1.433l.02.02V6.584H6.579s.04.809 0 9.345h3.35v-5.342c0-.29.03-.57.112-.782.244-.57.794-1.16 1.72-1.16 1.212 0 1.698.88 1.698 2.164v5.12H16.5v-5.487z"/></svg></svg>