<svg width="17" height="17" xmlns="http://www.w3.org/2000/svg" xmlns:xlink="http://www.w3.org/1999/xlink" xmlns:svgjs="http://svgjs.com/svgjs" fill="#807d77"><svg xmlns="http://www.w3.org/2000/svg" width="17" height="17" viewBox="1.5 1.5 15 15"><path paint-order="stroke fill markers" fill-rule="evenodd" d="M16.5 9.377c0-4.242-3.514-7.877-7.388-7.877C4.85 1.5 1.5 5.135 1.5 9.377c0 3.247 1.742 5.703 4.557 6.626-.02-.419-.01-.923.127-1.373 0 0 .147-.481.974-4.13-.249-.505-.249-1.257-.249-1.257 0-1.175.658-2.052 1.475-2.052.698 0 1.036.547 1.036 1.196 0 .722-.447 1.804-.677 2.804-.19.845.41 1.525 1.086 1.525 1.127 0 1.884-1.927 1.884-4.205 0-1.668-.88-2.737-2.521-2.737-2.322 0-3.743 1.49-3.743 3.49 0 .69.196 1.174.5 1.556.137.175.156.237.108.443-.04.144-.118.495-.157.629-.05.206-.206.278-.373.206-1.178-.453-1.733-1.67-1.733-3.03 0-2.183 1.998-5.155 5.607-5.155 2.272 0 4.805 2.557 4.805 4.742 0 3.113-2.227 5.432-4.246 5.432-.668 0-1.446-.464-1.705-.99-.449 1.618-.538 1.882-.538 1.882-.16.458-.489.916-.778 1.273a9.486 9.486 0 0 0 2.173.248c3.874 0 7.388-2.753 7.388-7.123z"/></svg></svg>