<svg width="14" height="15" xmlns="http://www.w3.org/2000/svg" xmlns:xlink="http://www.w3.org/1999/xlink" xmlns:svgjs="http://svgjs.com/svgjs" viewBox="0.036 0 13.929 15" fill="#807d77"><svg xmlns="http://www.w3.org/2000/svg" width="14" height="15" viewBox="2 2 13 14"><path paint-order="stroke fill markers" fill-rule="evenodd" d="M5.543 14.09c0-1.053-.793-1.908-1.771-1.908-.979 0-1.772.855-1.772 1.909S2.793 16 3.772 16c.978 0 1.771-.855 1.771-1.91zm4.724 1.224c-.157-2.118-1.015-4.117-2.417-5.618C6.457 8.185 4.602 7.26 2.637 7.091H2.59a.544.544 0 0 0-.396.169.626.626 0 0 0-.194.467V9.07c0 .328.23.596.535.626 2.814.288 5.047 2.695 5.315 5.727.028.328.277.577.581.577h1.246c.166 0 .323-.07.433-.209a.674.674 0 0 0 .157-.477zm4.732.02c-.174-3.48-1.53-6.752-3.827-9.218C8.883 3.641 5.848 2.18 2.618 2H2.59a.552.552 0 0 0-.405.18.631.631 0 0 0-.185.456v1.422c0 .328.24.607.554.627 5.36.338 9.633 4.941 9.937 10.718.019.338.277.597.59.597h1.32c.166 0 .314-.07.424-.199a.638.638 0 0 0 .174-.467z"/></svg></svg>